<svg xmlns="http://www.w3.org/2000/svg" viewBox="0 0 303.52 180.81"><defs><style>.cls-1{fill:#1d1d1b;}</style></defs><g id="Layer_2" data-name="Layer 2"><g id="Layer_1-2" data-name="Layer 1"><path class="cls-1" d="M171.42,91V41.12L204,53.66a9.52,9.52,0,0,1,3.94,3.07,8.87,8.87,0,0,1,1.46,4.7V91h11.71l.05-20.06s0-.51,0-9.49V20.06a20.43,20.43,0,0,0-6-14.25A20.63,20.63,0,0,0,201.05,0H179.81a19.92,19.92,0,0,0-14.22,5.91,19.22,19.22,0,0,0-5.83,14.14V91Zm2.48-76.73a8.31,8.31,0,0,1,5.91-2.48h21.24a8.27,8.27,0,0,1,6,2.59,9.43,9.43,0,0,1,2.27,5.7V43.25l-10.94-4.13-21.6-8.43a8,8,0,0,1-3.94-3.05A9.58,9.58,0,0,1,171.42,23V20.06A8.41,8.41,0,0,1,173.9,14.25Z"/><path class="cls-1" d="M90.81,41.11l32.52,12.54a9.59,9.59,0,0,1,3.94,3.08,8.87,8.87,0,0,1,1.46,4.7V91h11.71l.05-20s0-.52,0-9.49S134,46.62,134,46.62s.68-.65,3.6-4.37,2.93-10.44,2.93-10.44V20.06s-.05-8.3-6-14.25S120.43,0,120.43,0H79.14V91H90.81Zm0-29.35h29.62a8.25,8.25,0,0,1,6,2.6,9.41,9.41,0,0,1,2.27,5.7v11.2s.28,3.22-3,6.38-7.95,1.48-7.95,1.48l-21.6-8.44a8,8,0,0,1-3.94-3A9.65,9.65,0,0,1,90.81,23Z"/><path class="cls-1" d="M297.93,84.8a18.88,18.88,0,0,0,5.58-13.88V20.06s-.05-8.3-5.94-14.25S283.46,0,283.46,0h-41.3V91h41.3C285.78,91,291.79,90.6,297.93,84.8Zm-44.1-5.58V11.76h29.63a8.26,8.26,0,0,1,5.85,2.44,8,8,0,0,1,2.45,5.86v11.2s0,.15,0,.41V70.92a7.76,7.76,0,0,1-2.42,5.85,9.51,9.51,0,0,1-5.88,2.45Z"/><path class="cls-1" d="M61.35,61.43c0-9-6.53-14.81-6.53-14.81a54.6,54.6,0,0,0,3.6-4.37c2.93-3.72,2.93-10.44,2.93-10.44V20.06s-.05-8.3-5.94-14.25S41.3,0,41.3,0H0V91H41.3c2.32,0,8.33-.37,14.47-6.17a18.88,18.88,0,0,0,5.58-13.88S61.34,70.4,61.35,61.43ZM11.67,11.76H41.3a8.24,8.24,0,0,1,6,2.6,9.46,9.46,0,0,1,2.28,5.7v11.2s.27,3.22-3,6.38-7.94,1.48-7.94,1.48l-21.6-8.44a8,8,0,0,1-3.94-3A9.6,9.6,0,0,1,11.67,23Zm35.51,65a9.51,9.51,0,0,1-5.88,2.45H11.67V41.11L44.2,53.65a9.59,9.59,0,0,1,3.93,3.08,8.93,8.93,0,0,1,1.47,4.7v9.49A7.76,7.76,0,0,1,47.18,76.77Z"/><path class="cls-1" d="M293.85,140.87l-26.59-10.2s-2.64-1-3.6-2.74a10.59,10.59,0,0,1-1.14-3.78v-19h-9.64v75.14h9.64V139.15l26.94,10.38a7.15,7.15,0,0,1,3.67,3.34c1,2.34.72,3.06.72,3.06l0,24.4h9.64V105.19h-9.64Z"/><path class="cls-1" d="M47.8,146.48a16.12,16.12,0,0,0-7.85-6l-25.62-9.92A6.83,6.83,0,0,1,11,128a7.55,7.55,0,0,1-1.28-3.56v-2.71a7.4,7.4,0,0,1,1.62-4.43,6.81,6.81,0,0,1,5.23-2.42H34.19a6.85,6.85,0,0,1,4.69,1.85,6.69,6.69,0,0,1,2.17,5h9.71a16.23,16.23,0,0,0-4.45-11.29,16.52,16.52,0,0,0-12.12-5.27H16.37A17.25,17.25,0,0,0,4.9,110,16.5,16.5,0,0,0,0,121.75l0,1,.05,2.37A17.14,17.14,0,0,0,3.3,134a14.72,14.72,0,0,0,6.42,5.08l26.93,10.46a7.51,7.51,0,0,1,3.29,2.65,7.26,7.26,0,0,1,1.14,3.92V164a7.15,7.15,0,0,1-1.89,4.5,7,7,0,0,1-5,2.17H16.57a6.84,6.84,0,0,1-6.85-6.85H0a16.6,16.6,0,0,0,4.83,11.69,16.22,16.22,0,0,0,11.73,4.87H34.19a17.18,17.18,0,0,0,11.7-4.83,15.54,15.54,0,0,0,4.87-11.73l0-8.82A17.66,17.66,0,0,0,47.8,146.48Z"/><rect class="cls-1" x="164.25" y="105.19" width="9.64" height="75.15"/><polygon class="cls-1" points="207.84 105.66 187.46 105.66 187.46 115.38 207.84 115.38 207.84 180.81 217.48 180.81 217.48 115.38 238.14 115.38 238.14 105.66 217.48 105.66 207.84 105.66"/><path class="cls-1" d="M143.48,110a17.53,17.53,0,0,0-11.67-4.8H119.06A17.5,17.5,0,0,0,107.4,110a18.56,18.56,0,0,0-4.92,11.79V156c0,7.42,0,12.14,0,12.14h9.72V131.37a3,3,0,0,1,0-.34v-9.26a6.57,6.57,0,0,1,2-4.85,6.84,6.84,0,0,1,4.84-2h12.75a6.83,6.83,0,0,1,4.84,2,6.57,6.57,0,0,1,2,4.85V131a3,3,0,0,1,0,.34v49h9.72V121.77A18.58,18.58,0,0,0,143.48,110Z"/><path class="cls-1" d="M66.22,105.18l16.58-.07H95.55a17.48,17.48,0,0,1,11.67,4.8,18.52,18.52,0,0,1,4.92,11.78V155.9c0,7.43,0,11.7,0,11.7h-9.73V131.29a3,3,0,0,0,0-.34v-9.26a6.56,6.56,0,0,0-2-4.84,6.81,6.81,0,0,0-4.84-2H76l0,6.85V131a3,3,0,0,0,0,.34v49.05H66.22s0-17,0-24.44V105.18Z"/></g></g></svg>