<svg xmlns="http://www.w3.org/2000/svg" width="309.5" height="185.5" viewBox="0 0 309.5 185.5"><path d="M174.401 93.003V43.144l32.529 12.541s2.436.937 3.937 3.075c1.5 2.138 1.46 4.701 1.46 4.701v29.544h11.708l.049-20.052s-.007-.517 0-9.492V22.09s.397-7.905-5.945-14.249c-6.107-6.108-14.107-5.804-14.107-5.804h-21.246s-7.791-.514-14.219 5.914c-6.488 6.488-5.834 14.14-5.834 14.14v70.913h11.668zm2.478-76.731c2.68-2.68 5.908-2.479 5.908-2.479h21.244s3.713-.12 6.025 2.597c2.311 2.715 2.271 5.699 2.271 5.699v23.193l-10.938-4.131-21.602-8.438s-2.492-.78-3.941-3.042c-1.444-2.263-1.444-4.679-1.444-4.679v-2.904c-.001 0-.132-3.207 2.477-5.816zM93.782 43.139L126.31 55.68s2.436.937 3.938 3.075c1.5 2.138 1.459 4.701 1.459 4.701V93h11.709l.048-20.052s-.006-.517 0-9.492c.007-8.975-6.53-14.807-6.53-14.807s.685-.656 3.605-4.373c2.919-3.717 2.925-10.434 2.925-10.434V22.085s-.048-8.297-5.944-14.25c-5.898-5.953-14.107-5.801-14.107-5.801h-41.3v90.965h11.67v-49.86zm0-29.35h29.63s3.713-.122 6.023 2.595c2.312 2.717 2.271 5.702 2.271 5.702v11.198s.275 3.223-2.994 6.381c-3.27 3.157-7.945 1.482-7.945 1.482L99.17 32.709s-2.496-.781-3.943-3.044c-1.444-2.261-1.444-4.677-1.444-4.677V13.789zm207.124 73.036c6.139-5.804 5.582-13.878 5.582-13.878s-.006-.517 0-9.492v-41.37s-.047-8.297-5.945-14.25c-5.898-5.953-14.107-5.801-14.107-5.801h-41.299v90.965h41.299c2.322 0 8.335-.37 14.47-6.174zm-44.101-5.583V13.789h29.631s3.225-.19 5.854 2.44c2.722 2.721 2.442 5.856 2.442 5.856v11.198a4 4 0 0 0 0 .414v39.25s.261 3.394-2.411 5.846c-2.673 2.45-5.886 2.45-5.886 2.45h-29.63zM64.328 63.455c.006-8.975-6.531-14.807-6.531-14.807s.686-.656 3.604-4.373c2.923-3.717 2.927-10.434 2.927-10.434V22.085s-.047-8.297-5.944-14.25c-5.898-5.953-14.107-5.801-14.107-5.801H2.979v90.965h41.298c2.323 0 8.335-.369 14.472-6.173 6.137-5.804 5.58-13.878 5.58-13.878s-.009-.518-.001-9.493zM14.646 13.789h29.63s3.712-.122 6.023 2.595 2.272 5.702 2.272 5.702v11.198s.274 3.223-2.995 6.381c-3.27 3.157-7.944 1.482-7.944 1.482l-21.6-8.438s-2.496-.781-3.94-3.044c-1.446-2.261-1.446-4.677-1.446-4.677V13.789zm35.516 65.003c-2.674 2.45-5.886 2.45-5.886 2.45h-29.63V43.139l32.53 12.541s2.436.937 3.936 3.075 1.461 4.701 1.461 4.701v9.492c-.001-.001.261 3.393-2.411 5.844zm246.666 64.109l-26.589-10.205s-2.644-1.047-3.604-2.74c-.96-1.693-1.137-3.78-1.137-3.78v-18.962h-9.641v75.147h9.641v-41.189l26.939 10.386s2.659 1.006 3.672 3.34c1.012 2.337.719 3.057.719 3.057l.033 24.406h9.639v-75.147h-9.639l-.033 35.687zm-246.049 5.603c-2.816-4.089-6.458-5.491-7.854-6.028s-25.615-9.923-25.615-9.923-2.025-.597-3.331-2.507c-1.198-1.75-1.284-3.556-1.284-3.556v-2.713s.012-2.661 1.625-4.432c1.613-1.768 3.392-2.422 5.229-2.422 1.834.002 17.623 0 17.623 0s2.723-.102 4.688 1.859c1.968 1.958 2.134 3.765 2.165 4.995h9.712s.442-6.02-4.447-11.293c-4.889-5.271-11.013-5.271-12.118-5.271h-17.82s-6.656-.086-11.477 4.812c-4.82 4.901-4.848 10.199-4.893 11.753l.021.983.051 2.371s.132 4.782 3.219 8.888c2.957 3.936 6.425 5.075 6.425 5.075l26.931 10.46s2.139.827 3.284 2.655c1.144 1.83 1.144 3.455 1.144 3.913v7.85s-.02 2.583-1.885 4.506a6.971 6.971 0 0 1-5.001 2.167H19.547s-2.338.164-4.596-1.769c-2.256-1.931-2.256-4.842-2.256-5.083H2.982s-.356 6.513 4.83 11.691c5.188 5.179 11.234 4.873 11.736 4.873H37.17s6.252.32 11.694-4.831c5.441-5.151 4.871-11.733 4.871-11.733l.017-8.82c.001-.001-.155-4.379-2.973-8.47zm116.451-41.29h9.639v75.147h-9.639zm43.587.476h-20.38v9.712h20.38v65.436h9.64v-65.436h20.662v-9.712h-20.662zm-64.363 4.319c-4.878-4.922-11.665-4.798-11.665-4.798h-12.748s-6.789-.124-11.664 4.798c-4.879 4.924-4.919 11.785-4.919 11.785v34.213c.007 7.423 0 12.143 0 12.143h9.724v-36.752c-.011-.219 0-.343 0-.343v-9.261s-.234-2.592 2.018-4.841c2.176-2.175 4.842-2.019 4.842-2.019h12.748s2.666-.156 4.84 2.019c2.252 2.25 2.018 4.841 2.018 4.841v9.261s.014.124 0 .343v49.043h9.726s-.007-17.011 0-24.434v-34.213c-.002 0-.042-6.861-4.92-11.785z"/><path d="M69.198 107.21l16.581-.076h12.748s6.789-.125 11.666 4.798c4.879 4.923 4.919 11.785 4.919 11.785v34.214c-.007 7.422 0 11.692 0 11.692h-9.724v-36.302c.01-.219 0-.343 0-.343v-9.262s.23-2.592-2.02-4.842c-2.174-2.175-4.842-2.019-4.842-2.019H85.779l-6.842.008-.018 6.853v9.262s-.01.124 0 .343v49.042h-9.722s.007-17.011 0-24.433v-50.72z"/></svg>