<svg xmlns="http://www.w3.org/2000/svg" viewBox="0 0 303.52 180.81"><defs><style>.cls-1{fill:#1d1d1b}</style></defs><g id="Layer_2" data-name="Layer 2"><g id="Layer_1-2" data-name="Layer 1"><path d="M171.42 91V41.12L204 53.66a9.5 9.5 0 0 1 3.94 3.07 8.87 8.87 0 0 1 1.46 4.7V91h11.71l.05-20.06V20.06a20.43 20.43 0 0 0-6-14.25A20.63 20.63 0 0 0 201.05 0h-21.24a19.92 19.92 0 0 0-14.22 5.91 19.22 19.22 0 0 0-5.83 14.14V91Zm2.48-76.73a8.3 8.3 0 0 1 5.91-2.48h21.24a8.27 8.27 0 0 1 6 2.59 9.43 9.43 0 0 1 2.27 5.7v23.17l-10.94-4.13-21.6-8.43a8 8 0 0 1-3.94-3.05 9.6 9.6 0 0 1-1.42-4.64v-2.94a8.4 8.4 0 0 1 2.48-5.81ZM90.81 41.11l32.52 12.54a9.6 9.6 0 0 1 3.94 3.08 8.87 8.87 0 0 1 1.46 4.7V91h11.71l.05-20v-9.49c0-8.97-6.49-14.89-6.49-14.89s.68-.65 3.6-4.37 2.93-10.44 2.93-10.44V20.06s-.05-8.3-6-14.25S120.43 0 120.43 0H79.14v91h11.67Zm0-29.35h29.62a8.25 8.25 0 0 1 6 2.6 9.4 9.4 0 0 1 2.27 5.7v11.2s.28 3.22-3 6.38-7.95 1.48-7.95 1.48l-21.6-8.44a8 8 0 0 1-3.94-3 9.65 9.65 0 0 1-1.4-4.68ZM297.93 84.8a18.88 18.88 0 0 0 5.58-13.88V20.06s-.05-8.3-5.94-14.25S283.46 0 283.46 0h-41.3v91h41.3c2.32 0 8.33-.4 14.47-6.2m-44.1-5.58V11.76h29.63a8.26 8.26 0 0 1 5.85 2.44 8 8 0 0 1 2.45 5.86v50.86a7.76 7.76 0 0 1-2.42 5.85 9.5 9.5 0 0 1-5.88 2.45ZM61.35 61.43c0-9-6.53-14.81-6.53-14.81a55 55 0 0 0 3.6-4.37c2.93-3.72 2.93-10.44 2.93-10.44V20.06s-.05-8.3-5.94-14.25S41.3 0 41.3 0H0v91h41.3c2.32 0 8.33-.37 14.47-6.17a18.88 18.88 0 0 0 5.58-13.88s-.01-.55 0-9.52M11.67 11.76H41.3a8.24 8.24 0 0 1 6 2.6 9.46 9.46 0 0 1 2.28 5.7v11.2s.27 3.22-3 6.38-7.94 1.48-7.94 1.48l-21.6-8.44a8 8 0 0 1-3.94-3A9.6 9.6 0 0 1 11.67 23Zm35.51 65a9.5 9.5 0 0 1-5.88 2.45H11.67v-38.1L44.2 53.65a9.6 9.6 0 0 1 3.93 3.08 8.93 8.93 0 0 1 1.47 4.7v9.49a7.76 7.76 0 0 1-2.42 5.85Zm246.67 64.11-26.59-10.2s-2.64-1-3.6-2.74a10.6 10.6 0 0 1-1.14-3.78v-19h-9.64v75.14h9.64v-41.14l26.94 10.38a7.15 7.15 0 0 1 3.67 3.34c1 2.34.72 3.06.72 3.06v24.4h9.64v-75.14h-9.64ZM47.8 146.48a16.12 16.12 0 0 0-7.85-6l-25.62-9.92A6.83 6.83 0 0 1 11 128a7.55 7.55 0 0 1-1.28-3.56v-2.71a7.4 7.4 0 0 1 1.62-4.43 6.81 6.81 0 0 1 5.23-2.42h17.62a6.85 6.85 0 0 1 4.69 1.85 6.7 6.7 0 0 1 2.17 5h9.71a16.23 16.23 0 0 0-4.45-11.29 16.52 16.52 0 0 0-12.12-5.27H16.37A17.25 17.25 0 0 0 4.9 110 16.5 16.5 0 0 0 0 121.75v1l.05 2.37A17.14 17.14 0 0 0 3.3 134a14.7 14.7 0 0 0 6.42 5.08l26.93 10.46a7.5 7.5 0 0 1 3.29 2.65 7.26 7.26 0 0 1 1.14 3.92V164a7.15 7.15 0 0 1-1.89 4.5 7 7 0 0 1-5 2.17H16.57a6.84 6.84 0 0 1-6.85-6.85H0a16.6 16.6 0 0 0 4.83 11.69 16.22 16.22 0 0 0 11.73 4.87h17.63a17.18 17.18 0 0 0 11.7-4.83 15.54 15.54 0 0 0 4.87-11.73V155a17.66 17.66 0 0 0-2.96-8.52m116.45-41.29h9.64v75.15h-9.64zm43.59.47h-20.38v9.72h20.38v65.43h9.64v-65.43h20.66v-9.72zM143.48 110a17.53 17.53 0 0 0-11.67-4.8h-12.75a17.5 17.5 0 0 0-11.66 4.8 18.56 18.56 0 0 0-4.92 11.79v46.35h9.72v-36.77a3 3 0 0 1 0-.34v-9.26a6.57 6.57 0 0 1 2-4.85 6.84 6.84 0 0 1 4.84-2h12.75a6.83 6.83 0 0 1 4.84 2 6.57 6.57 0 0 1 2 4.85V131a3 3 0 0 1 0 .34v49h9.72v-58.57a18.58 18.58 0 0 0-4.87-11.77" class="cls-1"/><path d="m66.22 105.18 16.58-.07h12.75a17.48 17.48 0 0 1 11.67 4.8 18.52 18.52 0 0 1 4.92 11.78v45.91h-9.73v-36.31a3 3 0 0 0 0-.34v-9.26a6.56 6.56 0 0 0-2-4.84 6.8 6.8 0 0 0-4.84-2H76V131a3 3 0 0 0 0 .34v49.05h-9.78z" class="cls-1"/></g></g></svg>