<svg version="1.0" xmlns="http://www.w3.org/2000/svg" width="348" height="348" viewBox="0 0 261 261"><path d="M46 130v127h60.8c66.7 0 67.8-.1 79.6-6.1 16.5-8.4 26.6-20.9 30.1-37.4 2-9.4 2-41.4.1-50.6-1.7-7.8-6.2-17.3-11.7-24.5-2.1-2.8-3.9-5.4-3.9-5.8 0-.3 2.5-3.7 5.5-7.3 10-12.2 11.9-21.3 11.2-53.7-.5-24.5-1.1-27.7-7.5-40.1-4.9-9.4-13.1-17.3-22.3-21.9C174.1 2.9 175.2 3 107.3 3H46v127zm127.8-89.6c2.9 2 5.1 4.8 7.3 9.1l3 6.2-.3 20.5-.3 20.5-3 4.9c-1.7 2.6-5 6.2-7.3 7.9-3.7 2.5-5.3 3-10.5 3-5.6 0-9.3-1.2-37.7-12.3-35.5-14-35.5-14-39.2-17.9C80.7 77 80 73.6 80 54.5V36.9l44.8.3 44.9.3 4.1 2.9zM126 136.5c23.9 9.2 44.7 17.3 46.1 18.1 4 2 9.7 8.9 10.8 13.1 1.8 6.2 1.4 36.6-.5 41.1-2.1 5.2-6 9-11.9 11.8l-5 2.4H80v-52.1c0-41.3.3-52 1.3-51.6.6.2 20.8 8 44.7 17.2z"/></svg>