<?xml version="1.0" encoding="utf-8"?>
<!-- Generator: Adobe Illustrator 16.0.0, SVG Export Plug-In . SVG Version: 6.00 Build 0)  -->
<!DOCTYPE svg PUBLIC "-//W3C//DTD SVG 1.1//EN" "http://www.w3.org/Graphics/SVG/1.1/DTD/svg11.dtd">
<svg version="1.1" id="Layer_1" xmlns="http://www.w3.org/2000/svg" xmlns:xlink="http://www.w3.org/1999/xlink" x="0px" y="0px"
	 width="309.5px" height="185.5px" viewBox="0 0 309.5 185.5" enable-background="new 0 0 309.5 185.5" xml:space="preserve">
<path d="M174.401,93.003V43.144l32.529,12.541c0,0,2.436,0.937,3.937,3.075c1.5,2.138,1.46,4.701,1.46,4.701v9.492v20.052h11.708
	l0.049-20.052c0,0-0.007-0.517,0-9.492V33.847V22.09c0,0,0.397-7.905-5.945-14.249c-6.107-6.108-14.107-5.804-14.107-5.804h-21.246
	c0,0-7.791-0.514-14.219,5.914c-6.488,6.488-5.834,14.14-5.834,14.14v70.913H174.401z M176.879,16.272
	c2.68-2.68,5.908-2.479,5.908-2.479h21.244c0,0,3.713-0.12,6.025,2.597c2.311,2.715,2.271,5.699,2.271,5.699v11.199v11.994
	l-10.938-4.131l-21.602-8.438c0,0-2.492-0.78-3.941-3.042c-1.444-2.263-1.444-4.679-1.444-4.679v-2.904
	C174.401,22.088,174.27,18.881,176.879,16.272z"/>
<path d="M93.782,43.139l32.528,12.541c0,0,2.436,0.937,3.938,3.075c1.5,2.138,1.459,4.701,1.459,4.701v9.492v20.052h11.709
	l0.048-20.052c0,0-0.006-0.517,0-9.492c0.007-8.975-6.53-14.807-6.53-14.807s0.685-0.656,3.605-4.373
	c2.919-3.717,2.925-10.434,2.925-10.434V22.085c0,0-0.048-8.297-5.944-14.25c-5.898-5.953-14.107-5.801-14.107-5.801h-41.3v90.965
	h11.67V43.139z M93.782,13.789h29.63c0,0,3.713-0.122,6.023,2.595c2.312,2.717,2.271,5.702,2.271,5.702v11.198
	c0,0,0.275,3.223-2.994,6.381c-3.27,3.157-7.945,1.482-7.945,1.482L99.17,32.709c0,0-2.496-0.781-3.943-3.044
	c-1.444-2.261-1.444-4.677-1.444-4.677V13.789z"/>
<path d="M300.906,86.825c6.139-5.804,5.582-13.878,5.582-13.878s-0.006-0.517,0-9.492V33.842V22.085c0,0-0.047-8.297-5.945-14.25
	c-5.898-5.953-14.107-5.801-14.107-5.801h-41.299v90.965c0,0,38.977,0,41.299,0S294.771,92.629,300.906,86.825z M256.805,81.242
	V13.789h29.631c0,0,3.225-0.19,5.854,2.44c2.722,2.721,2.442,5.856,2.442,5.856v10.624v0.574c0,0,0.011,0.149,0,0.414v39.25
	c0,0,0.261,3.394-2.411,5.846c-2.673,2.45-5.886,2.45-5.886,2.45H256.805z"/>
<path d="M64.328,63.455c0.006-8.975-6.531-14.807-6.531-14.807s0.686-0.656,3.604-4.373c2.923-3.717,2.927-10.434,2.927-10.434
	V22.085c0,0-0.047-8.297-5.944-14.25c-5.898-5.953-14.107-5.801-14.107-5.801H2.979v90.965c0,0,38.977,0,41.298,0
	c2.323,0,8.335-0.369,14.472-6.173c6.137-5.804,5.58-13.878,5.58-13.878S64.32,72.43,64.328,63.455z M14.646,13.789h29.63
	c0,0,3.712-0.122,6.023,2.595s2.272,5.702,2.272,5.702v11.198c0,0,0.274,3.223-2.995,6.381c-3.27,3.157-7.944,1.482-7.944,1.482
	l-21.6-8.438c0,0-2.496-0.781-3.94-3.044c-1.446-2.261-1.446-4.677-1.446-4.677V13.789z M50.162,78.792
	c-2.674,2.45-5.886,2.45-5.886,2.45h-29.63V43.139L47.176,55.68c0,0,2.436,0.937,3.936,3.075c1.5,2.138,1.461,4.701,1.461,4.701
	v9.492C52.572,72.947,52.834,76.341,50.162,78.792z"/>
<path d="M296.828,142.901l-26.589-10.205c0,0-2.644-1.047-3.604-2.74c-0.96-1.693-1.137-3.78-1.137-3.78v-18.962h-9.641v75.147
	h9.641v-41.189l26.939,10.386c0,0,2.659,1.006,3.672,3.34c1.012,2.337,0.719,3.057,0.719,3.057l0.033,24.406h9.639v-75.147h-9.639
	L296.828,142.901z"/>
<path d="M50.779,148.504c-2.816-4.089-6.458-5.491-7.854-6.028s-25.615-9.923-25.615-9.923s-2.025-0.597-3.331-2.507
	c-1.198-1.75-1.284-3.556-1.284-3.556v-1.73v-0.983c0,0,0.012-2.661,1.625-4.432c1.613-1.768,3.392-2.422,5.229-2.422
	c1.834,0.002,17.623,0,17.623,0s2.723-0.102,4.688,1.859c1.968,1.958,2.134,3.765,2.165,4.995h9.712c0,0,0.442-6.02-4.447-11.293
	c-4.889-5.271-11.013-5.271-12.118-5.271s-17.82,0-17.82,0s-6.656-0.086-11.477,4.812c-4.82,4.901-4.848,10.199-4.893,11.753
	l0.021,0.983l0.051,2.371c0,0,0.132,4.782,3.219,8.888c2.957,3.936,6.425,5.075,6.425,5.075l26.931,10.46
	c0,0,2.139,0.827,3.284,2.655c1.144,1.83,1.144,3.455,1.144,3.913c0,0.457,0,7.85,0,7.85s-0.02,2.583-1.885,4.506
	c-1.863,1.922-4.021,2.167-5.001,2.167H19.547c0,0-2.338,0.164-4.596-1.769c-2.256-1.931-2.256-4.842-2.256-5.083H2.982
	c0,0-0.356,6.513,4.83,11.691c5.188,5.179,11.234,4.873,11.736,4.873c0.5,0,17.622,0,17.622,0s6.252,0.32,11.694-4.831
	c5.441-5.151,4.871-11.733,4.871-11.733l0.017-8.82C53.753,156.973,53.597,152.595,50.779,148.504z"/>
<rect x="167.23" y="107.214" width="9.639" height="75.147"/>
<polygon points="210.817,107.69 190.437,107.69 190.437,117.402 210.817,117.402 210.817,182.838 220.457,182.838 220.457,117.402 
	241.119,117.402 241.119,107.69 220.457,107.69 "/>
<g>
	<path d="M146.454,112.009c-4.878-4.922-11.665-4.798-11.665-4.798h-3.279h-9.469c0,0-6.789-0.124-11.664,4.798
		c-4.879,4.924-4.919,11.785-4.919,11.785v9.723v24.49c0.007,7.423,0,12.143,0,12.143h9.724v-36.752c-0.011-0.219,0-0.343,0-0.343
		v-0.474v-8.787c0,0-0.234-2.592,2.018-4.841c2.176-2.175,4.842-2.019,4.842-2.019h12.748l0,0c0,0,2.666-0.156,4.84,2.019
		c2.252,2.25,2.018,4.841,2.018,4.841v8.787v0.474c0,0,0.014,0.124,0,0.343v49.043h9.726c0,0-0.007-17.011,0-24.434v-24.49v-9.723
		C151.372,123.794,151.332,116.933,146.454,112.009z"/>
	<path d="M69.198,107.21l16.581-0.076h3.279h9.469c0,0,6.789-0.125,11.666,4.798c4.879,4.923,4.919,11.785,4.919,11.785v9.723
		v24.491c-0.007,7.422,0,11.692,0,11.692h-9.724v-36.302c0.01-0.219,0-0.343,0-0.343v-0.475v-8.787c0,0,0.23-2.592-2.02-4.842
		c-2.174-2.175-4.842-2.019-4.842-2.019H85.779l0,0l-6.842,0.008l-0.018,6.853v8.787v0.475c0,0-0.01,0.124,0,0.343v49.042l-9.722,0
		c0,0,0.007-17.011,0-24.433V133.44v-9.723V107.21z"/>
</g>
<g>
</g>
<g>
</g>
<g>
</g>
<g>
</g>
<g>
</g>
<g>
</g>
</svg>
