<?xml version="1.0" standalone="no"?>
<!DOCTYPE svg PUBLIC "-//W3C//DTD SVG 20010904//EN"
 "http://www.w3.org/TR/2001/REC-SVG-20010904/DTD/svg10.dtd">
<svg version="1.0" xmlns="http://www.w3.org/2000/svg"
 width="261.000000pt" height="261.000000pt" viewBox="0 0 261.000000 261.000000"
 preserveAspectRatio="xMidYMid meet">
<metadata>
Created by potrace 1.14, written by Peter Selinger 2001-2017
</metadata>
<g transform="translate(0.000000,261.000000) scale(0.100000,-0.100000)"
fill="#000000" stroke="none">
<path d="M460 1310 l0 -1270 608 0 c667 0 678 1 796 61 165 84 266 209 301
374 20 94 20 414 1 506 -17 78 -62 173 -117 245 -21 28 -39 54 -39 58 0 3 25
37 55 73 100 122 119 213 112 537 -5 245 -11 277 -75 401 -49 94 -131 173
-223 219 -138 67 -127 66 -806 66 l-613 0 0 -1270z m1278 896 c29 -20 51 -48
73 -91 l30 -62 -3 -205 -3 -205 -30 -49 c-17 -26 -50 -62 -73 -79 -37 -25 -53
-30 -105 -30 -56 0 -93 12 -377 123 -355 140 -355 140 -392 179 -51 53 -58 87
-58 278 l0 176 448 -3 449 -3 41 -29z m-478 -961 c239 -92 447 -173 461 -181
40 -20 97 -89 108 -131 18 -62 14 -366 -5 -411 -21 -52 -60 -90 -119 -118
l-50 -24 -427 0 -428 0 0 521 c0 413 3 520 13 516 6 -2 208 -80 447 -172z"/>
</g>
</svg>
